<svg xmlns="http://www.w3.org/2000/svg" xmlns:xlink="http://www.w3.org/1999/xlink" contentStyleType="text/css" data-diagram-type="CLASS" height="300px" preserveAspectRatio="none" style="width:633px;height:300px;background:#FFFFFF;" version="1.1" viewBox="0 0 633 300" width="633px" zoomAndPan="magnify"><title>Keyple - calypsonet-terminal-calypso-certificate-legacyprime-java-lib - 0.1.+ (2025-12-11)</title><defs><filter height="1" id="bj70jov8v9s1a0" width="1" x="0" y="0"><feFlood flood-color="#FFFF00" result="flood"/><feComposite in="SourceGraphic" in2="flood" operator="over"/></filter></defs><g><g class="title" data-source-line="1"><text fill="#000000" font-family="sans-serif" font-size="14" font-weight="bold" lengthAdjust="spacing" textLength="586.291" x="16.3545" y="25.1074">Keyple - calypsonet-terminal-calypso-certificate-legacyprime-java-lib - 0.1.+ (2025-12-11)</text></g><g class="legend" data-source-line="53"><rect fill="#DDDDDD" height="65.8633" rx="7.5" ry="7.5" style="stroke:#000000;stroke-width:1;" width="429.04" x="94.98" y="51.6211"/><text fill="#000000" font-family="sans-serif" font-size="14" lengthAdjust="spacing" text-decoration="underline" textLength="86.3857" x="99.98" y="71.7285">Colors legend</text><text fill="#000000" font-family="sans-serif" font-size="14" lengthAdjust="spacing" textLength="3.8896" x="190.2554" y="71.7285">:</text><ellipse cx="105.48" cy="86.3633" fill="#000000" rx="2.5" ry="2.5"/><text fill="#000000" font-family="sans-serif" font-size="14" lengthAdjust="spacing" text-decoration="underline" textLength="147.8477" x="111.98" y="90.3496">External API references</text><text fill="#000000" font-family="sans-serif" font-size="14" lengthAdjust="spacing" textLength="3.8896" x="263.7173" y="90.3496">:</text><rect fill="#000000" height="3.5" width="3.5" x="108.98" y="102.4844"/><text fill="#000000" filter="url(#bj70jov8v9s1a0)" font-family="sans-serif" font-size="14" font-weight="bold" lengthAdjust="spacing" textLength="403.04" x="115.98" y="108.9707">calypsonet-terminal-calypso-certificate-legacyprime-java-api</text></g><!--cluster root--><g class="cluster" data-entity="root" data-source-line="59" data-uid="ent0002" id="cluster_root"><path d="M8.5,136.498 L379.0918,136.498 A3.75,3.75 0 0 1 381.5918,138.998 L388.5918,161.1191 L623.5,161.1191 A2.5,2.5 0 0 1 626,163.6191 L626,290.998 A2.5,2.5 0 0 1 623.5,293.498 L8.5,293.498 A2.5,2.5 0 0 1 6,290.998 L6,138.998 A2.5,2.5 0 0 1 8.5,136.498" fill="#F8F9F9" style="stroke:#000000;stroke-width:1.5;"/><line style="stroke:#000000;stroke-width:1.5;" x1="6" x2="388.5918" y1="161.1191" y2="161.1191"/><text fill="#000000" font-family="sans-serif" font-size="14" font-weight="bold" lengthAdjust="spacing" textLength="369.5918" x="10" y="153.6055">org.calypsonet.terminal.calypso.certificate.legacyprime</text></g><!--class CalypsoCertificateLegacyPrimeService--><g class="entity" data-entity="CalypsoCertificateLegacyPrimeService" data-source-line="60" data-uid="ent0003" id="entity_CalypsoCertificateLegacyPrimeService"><rect fill="#E9F7EF" height="103.8633" rx="2.5" ry="2.5" style="stroke:#27AE60;stroke-width:2;" width="586.9912" x="22.5" y="173.498"/><ellipse cx="168.9185" cy="189.498" fill="#ADD1B2" rx="11" ry="11" style="stroke:#ADD1B2;stroke-width:1;"/><path d="M171.6841,185.373 Q171.8403,185.1543 172.0278,185.0449 Q172.2153,184.9355 172.4341,184.9355 Q172.8091,184.9355 173.0435,185.2012 Q173.2778,185.4512 173.2778,186.0605 L173.2778,187.5137 Q173.2778,188.123 173.0435,188.3887 Q172.8091,188.6543 172.4341,188.6543 Q172.0903,188.6543 171.8872,188.4512 Q171.6841,188.2637 171.5747,187.748 Q171.5278,187.3887 171.3403,187.2012 Q171.0122,186.8262 170.4028,186.6074 Q169.7935,186.3887 169.1685,186.3887 Q168.4028,186.3887 167.7622,186.7168 Q167.1372,187.0449 166.6372,187.7949 Q166.1528,188.5449 166.1528,189.5762 L166.1528,190.6699 Q166.1528,191.9043 167.0435,192.7324 Q167.9341,193.5449 169.5278,193.5449 Q170.4653,193.5449 171.1216,193.2949 Q171.5122,193.1387 171.9341,192.7012 Q172.1997,192.4355 172.3403,192.3574 Q172.4966,192.2793 172.6997,192.2793 Q173.0278,192.2793 173.2778,192.5449 Q173.5435,192.7949 173.5435,193.1387 Q173.5435,193.4824 173.1997,193.8887 Q172.6997,194.4668 171.9028,194.7949 Q170.8247,195.248 169.5278,195.248 Q168.0122,195.248 166.8091,194.623 Q165.8247,194.123 165.1372,193.0605 Q164.4497,191.9824 164.4497,190.7012 L164.4497,189.5449 Q164.4497,188.2168 165.0591,187.0762 Q165.6841,185.9199 166.7778,185.3105 Q167.8716,184.6855 169.106,184.6855 Q169.8403,184.6855 170.481,184.8574 Q171.1372,185.0137 171.6841,185.373 Z " fill="#000000"/><ellipse cx="194.4185" cy="188.998" fill="#84BE84" rx="3" ry="3" style="stroke:#038048;stroke-width:1;"/><text fill="#000000" font-family="sans-serif" font-size="14" font-weight="bold" lengthAdjust="spacing" textLength="28.7793" x="200.4185" y="195.2949">final</text><text fill="#000000" font-family="sans-serif" font-size="14" lengthAdjust="spacing" textLength="241.9854" x="233.0874" y="195.2949">CalypsoCertificateLegacyPrimeService</text><line style="stroke:#27AE60;stroke-width:2;" x1="23.5" x2="608.4912" y1="205.498" y2="205.498"/><line style="stroke:#27AE60;stroke-width:2;" x1="23.5" x2="608.4912" y1="213.498" y2="213.498"/><ellipse cx="33.5" cy="228.3086" fill="#84BE84" rx="3" ry="3" style="stroke:#038048;stroke-width:1;"/><text fill="#000000" font-family="sans-serif" font-size="14" lengthAdjust="spacing" text-decoration="underline" textLength="331.4746" x="42.5" y="232.6055">CalypsoCertificateLegacyPrimeService getInstance ()</text><text fill="#000000" font-family="sans-serif" font-size="14" lengthAdjust="spacing" textLength="3.8896" x="42.5" y="251.2266">&#160;</text><ellipse cx="33.5" cy="265.5508" fill="#84BE84" rx="3" ry="3" style="stroke:#038048;stroke-width:1;"/><text fill="#000000" filter="url(#bj70jov8v9s1a0)" font-family="sans-serif" font-size="14" lengthAdjust="spacing" textLength="262.2129" x="42.5" y="269.8477">CalypsoCertificateLegacyPrimeApiFactory</text><text fill="#000000" font-family="sans-serif" font-size="14" lengthAdjust="spacing" textLength="294.8887" x="308.6025" y="269.8477">getCalypsoCertificateLegacyPrimeApiFactory ()</text></g><!--SRC=[dPLHSzeu58NV_IlkfWzfwHY2CILaqipOajpDD9jc6lgG9qQn1MXZB8yamdeo-UyhotOmb85CUOAZSyydNSiNpNNA732Vxwp8KmOkn3GjSYKofbtDv99dD7LhpOsPr7p6OwgPcx8vZOjSyYLp_wNFr4tveoa_w_Qxd-6ZT-ODtRxdzlkV79Obe2t8EOMlNs7oD_c7c2_c9nAhbAsa0gxKYYb865p0GkjSNVHw2xrCOv4A6Ok4gMuibhsPx6dwc3AwSXFcnbNr7ibyLNoUkNbATS_vAs4pdZ50qsy_oKCVelDe78rtP0yYBnf4_euy038a8xBhzW6FS8ZnZZm45A08Uplo5mWn6g1HIxwvllqE0tzyZiEM-kkUW3SAo9UpibUk2_UwI4rVz89gI4Hsgc4jv1EikLv0njRmpAJY8WCn0tFMJA-MgIbpr1FFSYhf4fHvY4pe8cT1A6J292ex2X-2CKOusckytZA6VZ0Ymxr6j9s8SJ_qzXh9bf64uu51s_EHMrpkjrM5KgfKvPyiUFoKCQMW7Hj8ATRj9PFqmD9Kh7zBeV7JN8fLbjJaY4G4aVsmseBz09rX4_cJ9KVoBYybIwwkJ2mccA03iMzEClBDFN0Mt5pqHjoqoL3lLjAyXaV1kRLPjazGD3h8tfZFYUy7kC6_wLixU4nNn_cboPudZ8PHU93UMEkxNhDhTOlyJJAM7KNFIvTbZwCHYGwotxprErN36tcNNhm7NbXsOEuHESQsLWyDoB2DBhR9rKn4Fsudv7PYfwAPh7PaYjnEvkdK9YgezEaKBgpUCIlaFnDa9ZG4TzSWsSoaPZ5J6qy7BX_D8IuA-u9STJf_FDvfpZkTorwPTcL7UhKTnycDGkSCJeISTpVntIQ-qRgj-6uh_WIe0Yc4XXUxvyznsKiuwNHcPRav0ge2qAR-nfRVbUNtJ3xpk4fvZx7r_2kUPRueJJMFNzyNCMVwEZCLfjVmyPEpYTbgzi6e8ESHZRMGHTtJClIT5IMpnBqwh-Nr2PGICJVR5vcghzDDyF3ZLtMRxE_xoSDDzPVRF2tRy0_DF-BBgtFQhAYSDmjUkV0_]--></g></svg>